<svg xmlns="http://www.w3.org/2000/svg" width="128" height="128" viewBox="0 0 128 128" role="img" aria-label="Scrape Server logo">
  <defs>
    <linearGradient id="g" x1="0" y1="0" x2="1" y2="1">
      <stop offset="0" stop-color="#58a6ff"/>
      <stop offset="1" stop-color="#bc8cff"/>
    </linearGradient>
  </defs>
  <rect width="128" height="128" rx="28" fill="#0f1117"/>
  <rect x="2" y="2" width="124" height="124" rx="26" fill="none" stroke="url(#g)" stroke-width="2" opacity="0.5"/>
  <!-- web -->
  <g stroke="url(#g)" stroke-width="2.5" fill="none" stroke-linecap="round" opacity="0.85">
    <line x1="64" y1="20" x2="64" y2="108"/>
    <line x1="20" y1="64" x2="108" y2="64"/>
    <line x1="33" y1="33" x2="95" y2="95"/>
    <line x1="95" y1="33" x2="33" y2="95"/>
    <path d="M64 34 A30 30 0 0 1 94 64"/>
    <path d="M94 64 A30 30 0 0 1 64 94"/>
    <path d="M64 94 A30 30 0 0 1 34 64"/>
    <path d="M34 64 A30 30 0 0 1 64 34"/>
    <path d="M64 48 A16 16 0 0 1 80 64"/>
    <path d="M80 64 A16 16 0 0 1 64 80"/>
    <path d="M64 80 A16 16 0 0 1 48 64"/>
    <path d="M48 64 A16 16 0 0 1 64 48"/>
  </g>
  <!-- spider body -->
  <g fill="url(#g)">
    <ellipse cx="64" cy="66" rx="9" ry="12"/>
    <circle cx="64" cy="52" r="6"/>
  </g>
  <!-- spider legs -->
  <g stroke="url(#g)" stroke-width="3" stroke-linecap="round" fill="none">
    <path d="M57 60 L44 52 L40 58"/>
    <path d="M57 66 L42 66 L37 72"/>
    <path d="M57 72 L44 80 L41 87"/>
    <path d="M71 60 L84 52 L88 58"/>
    <path d="M71 66 L86 66 L91 72"/>
    <path d="M71 72 L84 80 L87 87"/>
  </g>
</svg>
